<?xml version="1.0" encoding="UTF-8" standalone="no"?>
<!-- Created with Inkscape (http://www.inkscape.org/) -->

<svg
   xmlns:dc="http://purl.org/dc/elements/1.1/"
   xmlns:cc="http://creativecommons.org/ns#"
   xmlns:rdf="http://www.w3.org/1999/02/22-rdf-syntax-ns#"
   xmlns:svg="http://www.w3.org/2000/svg"
   xmlns="http://www.w3.org/2000/svg"
   xmlns:sodipodi="http://sodipodi.sourceforge.net/DTD/sodipodi-0.dtd"
   xmlns:inkscape="http://www.inkscape.org/namespaces/inkscape"
   width="744.09448819"
   height="1052.3622047"
   id="svg2"
   version="1.1"
   inkscape:version="0.48.4 r9939"
   sodipodi:docname="icon.svg">
  <defs
     id="defs4" />
  <sodipodi:namedview
     id="base"
     pagecolor="#ffffff"
     bordercolor="#666666"
     borderopacity="1.0"
     inkscape:pageopacity="0.0"
     inkscape:pageshadow="2"
     inkscape:zoom="0.98994949"
     inkscape:cx="82.90426"
     inkscape:cy="487.43162"
     inkscape:document-units="px"
     inkscape:current-layer="layer1"
     showgrid="false"
     inkscape:window-width="1280"
     inkscape:window-height="972"
     inkscape:window-x="-8"
     inkscape:window-y="-8"
     inkscape:window-maximized="1" />
  <metadata
     id="metadata7">
    <rdf:RDF>
      <cc:Work
         rdf:about="">
        <dc:format>image/svg+xml</dc:format>
        <dc:type
           rdf:resource="http://purl.org/dc/dcmitype/StillImage" />
        <dc:title />
      </cc:Work>
    </rdf:RDF>
  </metadata>
  <g
     inkscape:label="Layer 1"
     inkscape:groupmode="layer"
     id="layer1">
    <path
       sodipodi:type="arc"
       style="opacity:0.98000004;fill:#ffffff;fill-opacity:1;fill-rule:evenodd;stroke:#50bdfb;stroke-width:25;stroke-miterlimit:4;stroke-opacity:1;stroke-dasharray:none;stroke-dashoffset:0"
       id="path2985"
       sodipodi:cx="265.71429"
       sodipodi:cy="656.64789"
       sodipodi:rx="72.85714"
       sodipodi:ry="72.85714"
       d="m 338.57143,656.64789 a 72.85714,72.85714 0 1 1 -145.71428,0 72.85714,72.85714 0 1 1 145.71428,0 z"
       inkscape:export-filename="C:\PROGRAMY\Glucose2\img\g32.png"
       inkscape:export-xdpi="95.91217"
       inkscape:export-ydpi="95.91217"
       transform="translate(-48.571429,-28.571429)" />
    <g
       style="font-size:8.25px;font-style:normal;font-weight:400;fill:none;stroke:#ff0000;stroke-width:57.76789093;stroke-linecap:square;stroke-linejoin:bevel;stroke-miterlimit:4;stroke-opacity:1;stroke-dasharray:none;font-family:MS Shell Dlg 2"
       id="g24"
       font-style="normal"
       font-weight="400"
       font-size="8.25"
       transform="matrix(0.24542043,0,0,0.2550893,97.353386,487.85515)">
      <path
         style="stroke-width:57.76789093;stroke-miterlimit:4;stroke-dasharray:none"
         d="M 169.58004,775.848 C 197.26341,765.57323 206.06497,761.56126 234,752.249 c 23.34032,-3.92395 51.11326,7.60022 71,-9.311 16.96119,-26.85979 17.18759,-60.45201 22.88114,-90.93079 15.50913,-110.97134 18.89045,-223.3862 36.93233,-334.00399 3.27594,-10.65601 2.96507,-25.82768 13.18653,-32.08122 13.02275,11.0849 13.69525,31.45976 20,46.872 8.63159,30.02252 22.26249,61.96912 52,76.435 16.7109,10.66757 36.43845,24.92988 57,15.215 15.41393,-8.51947 32.99421,-3.87129 47,5.092 17.37483,11.73647 37.0808,1.76862 54,-5.066 18.16816,-5.5879 41.343,-1.2467 49,18.411 21.01615,45.08843 25.6201,95.58648 37,143.566 13.24146,61.78824 26.18038,127.13725 66,178.038 18.23933,22.39204 20.52206,19.79164 46.18794,17.468"
         id="path3763"
         inkscape:connector-curvature="0"
         sodipodi:nodetypes="ccccccccccccccc" />
    </g>
  </g>
</svg>
